# xmcd
#
# Track frame offsets:
#	150
#	9296
#	15443
#	30625
#	39398
#	51772
#	60305
#	70102
#	78098
#	92256
#	111725
#	121888
#	128533
#
# Disc length: 1862 seconds
#
# Revision: 1
# Processed by: cddbd v1.5.2PL0 Copyright (c) Steve Scherf et al.
# Submitted via: audiograbber 1.83.01
#
DISCID=8e07440d
DTITLE=Smoky Mountain Boys - Prayer Grounds
DYEAR=1900
DGENRE=Gospel
TTITLE0=Prayer Grounds
TTITLE1=I'll Live Again
TTITLE2=Mary's Little Lamb
TTITLE3=Grand Homecoming
TTITLE4=Deliverance Will Come
TTITLE5=Glory Is Just Ahead
TTITLE6=Be Ready For Tomorrow
TTITLE7=Dip At Calvary
TTITLE8=Just For You And Me
TTITLE9=I See Jesus
TTITLE10=A Million Years In Glory
TTITLE11=Anchored In The RockTrack 12
TTITLE12=It Is I Thomas
EXTD=
EXTT0=
EXTT1=
EXTT2=
EXTT3=
EXTT4=
EXTT5=
EXTT6=
EXTT7=
EXTT8=
EXTT9=
EXTT10=
EXTT11=
EXTT12=
PLAYORDER=
